# Blender 4.5.4 LTS
# www.blender.org
mtllib PeachPD.mtl
g PiernaDere_mesh_0_.004
v -0.435044 94.671555 27.958418
v -0.435044 81.476273 34.396191
v 10.223957 86.864410 30.179485
v 4.199456 97.954529 24.845644
v 9.459927 91.168289 27.392834
v -0.435044 29.682465 -40.613621
v -0.435044 29.682465 -40.613621
v -0.435044 0.714798 -50.021072
v 12.063656 0.752201 -47.578758
v 16.547155 29.758989 -35.617504
v 19.295656 0.824184 -42.874710
v 13.995457 55.005951 -29.059084
v -0.435044 54.949097 -32.775948
v -0.435044 91.670082 -17.771122
v -0.435044 80.595490 -23.185076
v 10.980856 80.623466 -21.355989
v -0.435044 99.959503 -11.628887
v -0.435044 103.564835 -8.509365
v 2.868426 101.386658 -10.399672
v 3.134925 96.902077 -13.692167
v 8.628046 93.000771 -14.924841
v 10.223957 86.864410 30.179485
v 11.182356 81.444183 32.298534
v 22.265656 81.355766 26.511610
v 15.775257 87.360764 26.341547
v 9.459927 91.168289 27.392834
v 22.378157 84.765358 22.267563
v 31.032555 30.867622 36.859318
v 26.927956 55.948196 32.533615
v 16.655056 31.017977 46.688663
v 40.824055 30.643177 22.186232
v 34.345455 55.747921 19.440445
v 31.032555 30.867622 36.859318
v 45.379654 1.994526 33.630444
v 47.199154 1.864677 25.141033
v 27.703957 2.267452 51.476852
v 19.295656 2.295521 53.313938
v 19.217056 86.733337 -13.525520
v 21.678057 80.707649 -15.859034
v 8.628046 93.000771 -14.924841
v 24.955055 86.636658 -5.716688
v 27.644855 81.048286 -6.718674
v 18.773056 90.269745 -10.943007
v 9.517675 96.180008 -12.586292
v 43.955555 30.381786 5.091300
v 37.921856 55.517113 4.351385
v 40.824055 30.643177 22.186232
v 43.955555 30.381786 5.091300
v 40.663055 30.123739 -11.771994
v 34.321556 55.309010 -9.253300
v 51.858055 1.366940 -7.399660
v 47.199154 1.255230 -14.701605
v 51.858055 1.752998 17.839088
v 47.199154 1.864677 25.141033
v 28.817455 83.308929 4.114287
v 30.899956 78.971130 4.278002
v 24.955055 86.636658 -5.716688
v 16.829256 90.903885 26.976229
v 14.748556 95.893990 25.042282
v 10.554756 93.927750 28.088711
v 15.775257 87.360764 26.341547
v 9.459927 91.168289 27.392834
v 4.199456 97.954529 24.845644
v 5.588117 102.002350 22.527962
v 11.332855 101.280907 21.896524
v 20.513657 96.097023 21.224630
v 21.361656 92.504517 21.349890
v 26.065556 90.033516 14.150042
v 25.168354 93.684296 13.930880
v 27.022755 93.859207 3.809586
v 21.817156 97.897308 8.283932
v 17.604755 99.343628 18.669876
v 12.981056 104.641495 15.717003
v 15.028555 105.839767 6.310395
v 13.650255 105.296959 -3.022765
v 19.840656 100.503319 -3.478181
v 11.135956 99.225174 -11.735569
v 5.250146 102.991539 -9.963066
v 9.517675 96.180008 -12.586292
v 20.049856 93.955917 -9.593628
v 19.161757 95.946815 -7.909379
v 23.623457 95.229828 -3.542673
v 24.567257 93.150444 -3.191489
v 27.688156 90.612221 3.867999
v -0.435044 103.564835 -8.509365
v 2.868426 101.386658 -10.399672
v 18.773056 90.269745 -10.943007
v 20.049856 93.955917 -9.593628
v 20.049856 93.955917 -9.593628
v 26.201756 91.009071 -4.781943
v 24.567257 93.150444 -3.191489
v 27.688156 90.612221 3.867999
v 29.280457 88.046890 3.924734
v 28.817455 83.308929 4.114287
v 27.981556 86.913818 14.854439
v 27.110355 82.861954 15.678707
v 22.378157 84.765358 22.267563
v 23.259457 88.536957 22.408398
v 26.065556 90.033516 14.150042
v 21.361656 92.504517 21.349890
v 24.955055 86.636658 -5.716688
v -0.435044 31.100376 52.082233
v -0.435044 2.404758 60.460011
v 16.655056 31.017977 46.688663
v 13.995457 56.063522 40.079731
v 12.063656 2.367447 58.017689
v 19.295656 2.295521 53.313938
v 30.956654 29.906261 -25.989632
v 26.995354 55.116142 -21.862123
v 34.321556 55.309010 -9.253300
v 40.663055 30.123739 -11.771994
v 45.379654 1.125362 -23.191111
v 27.703957 0.852314 -41.037724
v 16.547155 29.758989 -35.617504
v 13.995457 55.005951 -29.059084
v 19.295656 0.824184 -42.874710
v -0.435044 52.541573 4.718039
v -0.435044 2.404758 60.460011
v 12.063656 2.367447 58.017689
v 19.295656 2.295521 53.313938
v -0.435044 52.541573 4.718039
v 51.858055 1.366940 -7.399660
v 47.199154 1.255230 -14.701605
v 51.858055 1.752998 17.839088
v 47.199154 1.864677 25.141033
v -0.435044 0.714798 -50.021072
v -0.435044 52.541573 4.718039
v 12.063656 0.752201 -47.578758
v 19.295656 0.824184 -42.874710
v -0.435044 52.541573 4.718039
v 27.703957 0.852314 -41.037724
v 19.295656 0.824184 -42.874710
v 45.379654 1.125362 -23.191111
v 47.199154 1.255230 -14.701605
v -0.435044 52.541573 4.718039
v 45.379654 1.994526 33.630444
v 47.199154 1.864677 25.141033
v 27.703957 2.267452 51.476852
v 19.295656 2.295521 53.313938
v 4.765376 44.508030 9.739100
v 9.793556 44.443951 5.550028
v 9.505276 54.223785 5.183273
v 4.561067 36.688103 9.777897
v 9.431517 37.640583 5.656774
v 6.152387 37.648819 0.670228
v 4.752406 20.264481 2.343810
v 2.999686 20.263531 2.281677
v 2.719296 15.146683 1.958190
v 1.052056 20.308355 5.212062
v 2.956466 37.648819 0.670218
v 6.511975 44.363186 0.270118
v 6.742995 49.858135 0.440654
v 2.844756 44.363186 0.270098
v 0.072864 37.725075 5.655448
v -0.076291 44.443951 5.549992
v -0.111348 54.223782 5.183239
v 3.837876 20.345892 7.665987
v 0.787646 16.408611 5.271714
v 0.313533 7.986885 2.142387
v 0.808505 11.522285 7.347294
v 3.780425 12.713455 9.415228
v 3.780425 17.067232 7.647921
v 6.437016 20.315126 5.654795
v 4.700036 15.205048 2.053348
v 6.425096 16.450478 5.713910
v 6.765487 11.522285 7.347314
v 7.459626 7.986916 2.142407
v 3.670615 8.947193 -0.920089
v 1.817946 5.535282 -1.846353
v 3.537906 5.542873 -2.907494
v 5.820716 5.534874 -1.873840
v 4.687736 54.262634 7.723251
v 7.541757 54.725845 -0.779368
v 2.285066 54.716698 -0.959019
v 2.891126 49.856960 0.520792
v 47.199154 1.255230 -14.701605
v 0.103572 1.021576 0.172638
v 3.537906 0.883999 -8.822239
v 7.458936 1.019703 0.048393
v 0.597995 5.246807 3.228583
v 7.377727 5.246838 3.228602
v 1.847426 6.945885 6.174651
v 0.926476 9.187263 8.139269
v 3.780425 1.143883 8.167334
v 5.713445 6.945896 6.174661
v 6.634397 9.187283 8.139290
v 3.780425 7.673832 9.363590
v 3.780425 9.522865 10.308571
v 3.780425 12.713455 9.415228
v 6.765487 11.522285 7.347314
v 7.459626 7.986916 2.142407
v 7.377727 5.246838 3.228602
v 7.458936 1.019703 0.048393
v 5.820716 5.534874 -1.873840
v 3.537906 0.883999 -8.822239
v 3.537906 5.542873 -2.907494
v 1.817946 5.535282 -1.846353
v 0.103572 1.021576 0.172638
v 0.313533 7.986885 2.142387
v 0.597995 5.246807 3.228583
v 0.808505 11.522285 7.347294
v -0.435044 56.129677 44.404625
v 11.182356 81.444183 32.298534
v 13.995457 56.063522 40.079731
v 28.862156 79.079132 16.607872
v 10.980856 80.623466 -21.355989
v 28.862156 79.079132 16.607872
v 34.345455 55.747921 19.440445
v 27.644855 81.048286 -6.718674
v 27.110355 82.861954 15.678707
v 27.110355 82.861954 15.678707
vn 0.2003 0.4734 0.8577
vn 0.1578 0.3853 0.9092
vn 0.3162 0.4777 0.8197
vn 0.3051 0.5326 0.7895
vn 0.1801 0.5296 0.8289
vn 0.3283 0.3004 -0.8956
vn 0.1848 0.3066 -0.9337
vn 0.2605 0.3104 -0.9142
vn 0.3842 0.2880 -0.8772
vn 0.3712 0.2589 -0.8917
vn 0.2781 0.2925 -0.9149
vn 0.3647 0.2827 -0.8872
vn 0.2288 0.2984 -0.9266
vn 0.1672 0.4987 -0.8505
vn 0.2638 0.3950 -0.8800
vn 0.1461 0.3905 -0.9089
vn 0.0288 0.6145 -0.7884
vn -0.0013 0.6543 -0.7562
vn 0.0816 0.6143 -0.7849
vn 0.1360 0.5701 -0.8103
vn 0.2835 0.5113 -0.8113
vn 0.3162 0.4777 0.8196
vn 0.3029 0.3525 0.8854
vn 0.6108 0.4443 0.6554
vn 0.4871 0.5650 0.6659
vn 0.6810 0.5590 0.4730
vn 0.6826 0.2903 0.6707
vn 0.6820 0.2705 0.6795
vn 0.3893 0.2846 0.8760
vn 0.8924 0.2755 0.3574
vn 0.9010 0.2588 0.3481
vn 0.6826 0.2904 0.6707
vn 0.8309 0.2843 0.4784
vn 0.9000 0.2369 0.3658
vn 0.4899 0.2873 0.8231
vn 0.3755 0.2410 0.8949
vn 0.5791 0.4932 -0.6492
vn 0.6167 0.3976 -0.6794
vn 0.8143 0.4539 -0.3618
vn 0.8300 0.3921 -0.3967
vn 0.2801 0.5520 -0.7854
vn 0.9576 0.2878 -0.0098
vn 0.9648 0.2625 -0.0186
vn 0.8924 0.2755 0.3573
vn 0.8868 0.2745 -0.3718
vn 0.8896 0.2591 -0.3763
vn 0.9266 0.2857 -0.2447
vn 0.8966 0.2407 -0.3716
vn 0.9299 0.2842 0.2334
vn 0.9000 0.2369 0.3659
vn 0.8955 0.4446 -0.0210
vn 0.9321 0.3614 -0.0231
vn 0.8143 0.4539 -0.3617
vn 0.4183 0.1441 0.8968
vn 0.4404 0.5066 0.7412
vn 0.0135 0.3144 0.9492
vn 0.2709 -0.2253 0.9359
vn -0.2211 -0.1337 0.9660
vn -0.3086 0.3798 0.8721
vn 0.0224 0.5372 0.8432
vn 0.4354 0.5946 0.6759
vn 0.6440 0.5864 0.4913
vn 0.5074 0.6989 0.5041
vn 0.7169 0.1978 0.6686
vn 0.9342 0.2271 0.2750
vn 0.8231 0.5092 0.2516
vn 0.8861 0.4595 -0.0609
vn 0.6869 0.7133 0.1394
vn 0.5857 0.7391 0.3328
vn 0.6334 0.6962 0.3379
vn 0.7242 0.6858 0.0716
vn 0.6683 0.6703 -0.3225
vn 0.4932 0.7494 -0.4418
vn 0.3628 0.5432 -0.7572
vn -0.0473 0.5184 -0.8539
vn 0.1818 0.2245 -0.9574
vn 0.5190 0.3618 -0.7744
vn 0.6264 0.5606 -0.5415
vn 0.7758 0.4077 -0.4816
vn 0.8502 0.2469 -0.4649
vn 0.9758 0.1983 -0.0920
vn -0.1202 0.4056 -0.9061
vn -0.2134 0.4125 -0.8856
vn 0.4845 0.1272 -0.8655
vn 0.1818 0.2244 -0.9574
vn 0.5189 0.3618 -0.7745
vn 0.8016 0.4025 -0.4420
vn 0.4846 0.1272 -0.8654
vn 0.6264 0.5607 -0.5415
vn 0.7256 0.6552 -0.2102
vn 0.8279 0.5603 0.0255
vn 0.9535 0.3012 -0.0135
vn 0.9802 -0.1420 -0.1379
vn 0.9179 0.2234 0.3279
vn 0.9235 -0.1372 0.3583
vn 0.6607 -0.1785 0.7291
vn 0.7329 0.2943 0.6134
vn 0.8102 0.5256 0.2594
vn 0.7124 0.4779 0.5140
vn 0.7990 -0.0621 -0.5981
vn 0.2979 0.2810 0.9123
vn 0.2045 0.2994 0.9319
vn 0.3893 0.2846 0.8761
vn 0.3933 0.2703 0.8788
vn 0.3756 0.2410 0.8949
vn 0.6715 0.2921 -0.6811
vn 0.6666 0.2703 -0.6947
vn 0.8895 0.2591 -0.3763
vn 0.8240 0.2904 -0.4864
vn 0.4811 0.3008 -0.8234
vn 0.3648 0.2827 -0.8871
vn 0.3711 0.2589 -0.8918
vn -0.0771 -0.9967 0.0265
vn -0.2614 -0.7323 -0.6288
vn -0.1314 -0.7368 -0.6632
vn -0.2710 -0.7216 -0.6370
vn -0.6599 -0.7229 0.2049
vn 0.0001 -0.9999 0.0136
vn -0.6493 -0.7082 0.2772
vn -0.6610 -0.7276 -0.1834
vn -0.6509 -0.7146 -0.2563
vn -0.2599 -0.7167 0.6471
vn -0.0773 -0.9970 0.0007
vn -0.1310 -0.7199 0.6816
vn -0.2694 -0.7060 0.6550
vn -0.3285 -0.7202 0.6111
vn -0.0000 -0.9999 0.0135
vn -0.2693 -0.7060 0.6550
vn -0.6008 -0.7237 0.3396
vn -0.6067 -0.7297 -0.3152
vn -0.6509 -0.7146 -0.2562
vn -0.3302 -0.7349 -0.5923
vn -0.2709 -0.7217 -0.6371
vn -0.0078 0.0888 0.9960
vn 0.9872 -0.0126 0.1589
vn 0.9635 -0.0013 0.2678
vn -0.0186 -0.0619 0.9979
vn 0.9813 -0.1098 0.1583
vn 0.4867 -0.1003 -0.8678
vn 0.5219 -0.0472 -0.8517
vn -0.4738 -0.0034 -0.8806
vn -0.5072 0.2331 -0.8297
vn -0.9893 -0.0012 0.1460
vn -0.4936 -0.0669 -0.8671
vn 0.4840 -0.0256 -0.8747
vn 0.5217 -0.1355 -0.8423
vn -0.5018 -0.0172 -0.8648
vn -0.9875 -0.0416 0.1522
vn -0.9868 -0.0009 0.1621
vn -0.9681 -0.0088 0.2506
vn -0.0253 -0.0480 0.9985
vn -0.9473 0.2013 0.2492
vn -0.9412 0.1719 -0.2909
vn -0.8801 0.1391 0.4539
vn -0.0000 0.3266 0.9452
vn -0.0221 0.1961 0.9803
vn 0.9765 -0.0806 0.1996
vn 0.5487 0.2372 -0.8016
vn 0.9353 0.2006 0.2915
vn 0.8727 0.1626 0.4604
vn 0.9279 0.2061 -0.3106
vn -0.0282 0.4960 -0.8679
vn -0.6997 0.4333 -0.5681
vn -0.0513 0.6593 -0.7501
vn 0.6561 0.4426 -0.6113
vn 0.0011 0.2024 0.9793
vn 0.5588 -0.3001 -0.7731
vn -0.5310 -0.2937 -0.7948
vn -0.5303 -0.1385 -0.8364
vn 0.8967 0.2407 -0.3716
vn -0.9057 -0.4170 0.0760
vn -0.0000 -0.9999 0.0136
vn 0.9046 -0.4263 0.0059
vn -0.6111 -0.5627 0.5567
vn 0.6198 -0.5631 0.5467
vn -0.5276 -0.8490 0.0288
vn -0.7568 -0.1929 0.6246
vn -0.0000 -0.8875 0.4607
vn 0.5107 -0.8588 0.0416
vn 0.7486 -0.1869 0.6361
vn -0.0000 -0.3179 0.9481
vn -0.0000 -0.1142 0.9935
vn -0.0000 0.3265 0.9452
vn 0.9280 0.2060 -0.3105
vn 0.6197 -0.5631 0.5467
vn 0.6561 0.4425 -0.6113
vn -0.0342 0.6875 -0.7253
vn -0.0513 0.6594 -0.7501
vn -0.6997 0.4332 -0.5680
vn -0.9057 -0.4171 0.0760
vn -0.9412 0.1719 -0.2908
vn 0.2648 0.3142 0.9117
vn 0.3029 0.3525 0.8855
vn 0.8764 0.3660 0.3130
vn 0.9010 0.2588 0.3480
vn 0.8300 0.3921 -0.3966
vn 0.8411 0.4614 0.2824
vn 0.8410 0.4614 0.2824
vt 0.108083 0.431579
vt 0.108083 0.375293
vt 0.002780 0.399466
vt 0.002711 0.418735
vt 0.053315 0.448726
vt 0.178215 0.003527
vt 0.101116 0.003527
vt 0.139665 0.232761
vt 0.223293 0.232770
vt 0.223293 0.003527
vt 0.100783 0.232761
vt 0.223293 0.280213
vt 0.101116 0.280205
vt 0.101116 0.458715
vt 0.223293 0.375293
vt 0.101116 0.375293
vt 0.101116 0.475128
vt 0.101116 0.494195
vt 0.075070 0.480345
vt 0.153604 0.458715
vt 0.223293 0.438484
vt 0.224104 0.399466
vt 0.224190 0.375293
vt 0.110616 0.375293
vt 0.166209 0.401926
vt 0.224036 0.418735
vt 0.081131 0.389181
vt 0.110503 0.232761
vt 0.110616 0.280205
vt 0.223894 0.232761
vt 0.002857 0.232761
vt 0.002857 0.280205
vt 0.111387 0.232761
vt 0.049353 0.003527
vt 0.002857 0.003527
vt 0.174994 0.003527
vt 0.223894 0.003527
vt 0.116290 0.405669
vt 0.116642 0.375293
vt 0.002458 0.438484
vt 0.223293 0.403278
vt 0.134546 0.426103
vt 0.026279 0.454401
vt 0.112689 0.232770
vt 0.113086 0.280213
vt 0.114128 0.232770
vt 0.002458 0.232761
vt 0.002458 0.280205
vt 0.052093 0.003527
vt 0.002458 0.003527
vt 0.177180 0.003527
vt 0.113086 0.379693
vt 0.113086 0.356744
vt 0.002458 0.403286
vt 0.477119 0.122160
vt 0.465365 0.139259
vt 0.483124 0.145111
vt 0.483573 0.113407
vt 0.491600 0.146118
vt 0.492324 0.174202
vt 0.479628 0.191461
vt 0.444559 0.134668
vt 0.460612 0.175663
vt 0.446208 0.119749
vt 0.415026 0.101747
vt 0.414708 0.113926
vt 0.379656 0.108044
vt 0.395136 0.140309
vt 0.438525 0.155560
vt 0.444559 0.197227
vt 0.391904 0.199926
vt 0.347827 0.140187
vt 0.351095 0.201689
vt 0.288348 0.164548
vt 0.282005 0.209314
vt 0.272602 0.125602
vt 0.304050 0.108043
vt 0.318566 0.123350
vt 0.344445 0.119572
vt 0.345992 0.103377
vt 0.378387 0.098664
vt 0.265163 0.203947
vt 0.269973 0.239479
vt 0.305513 0.074877
vt 0.342424 0.088882
vt 0.378387 0.080730
vt 0.378387 0.057318
vt 0.416404 0.084631
vt 0.416890 0.063171
vt 0.455099 0.086583
vt 0.448354 0.096648
vt 0.340774 0.063171
vt 0.108083 0.232761
vt 0.108083 0.003527
vt 0.002568 0.232761
vt 0.002243 0.280205
vt 0.043917 0.003527
vt 0.002568 0.003527
vt 0.112993 0.232761
vt 0.116690 0.280205
vt 0.180639 0.003527
vt 0.045957 0.003527
vt 0.052622 0.403208
vt 0.041214 0.006600
vt 0.105380 0.006600
vt -0.000134 0.006600
vt 0.049390 0.006600
vt 0.110590 0.403217
vt -0.000244 0.006600
vt 0.174477 0.006600
vt 0.220590 0.006600
vt 0.175512 0.006600
vt 0.178776 0.403208
vt 0.098413 0.006600
vt 0.043254 0.006600
vt 0.110212 0.403208
vt 0.177936 0.006600
vt 0.046650 0.006600
vt 0.110010 0.403208
vt 0.000154 0.006600
vt 0.172291 0.006600
vt 0.221191 0.006600
vt 0.223417 0.785184
vt 0.000000 0.800000
vt 0.108083 0.280205
vt 0.002866 0.375293
vt 0.223572 0.280205
vt 0.002621 0.356473
vt 0.002458 0.375293
vt 0.223293 0.356481
vt 0.223293 0.375875
vt 0.002665 0.375866
s 1
g Hip
g PiernaDere_PeachBodyMat00
usemtl PeachBodyMat00
f 1/1/1 2/2/2 3/3/3
f 1/1/1 5/4/4 4/5/5
f 1/1/1 3/3/3 5/4/4
g Skirt3
f 9/6/6 8/7/7 7/8/8
g Skirt2
f 9/6/6 7/8/8 10/9/9
g Skirt3
f 11/10/10 9/6/6 10/9/9
s 2
g Skirt2
f 10/9/9 6/11/11 12/12/12
f 6/11/11 13/13/13 12/12/12
g Hip
f 14/14/14 16/15/15 15/16/16
f 17/17/17 18/18/18 19/19/19
f 17/17/17 20/20/20 14/14/14
f 20/20/20 17/17/17 19/19/19
f 14/14/14 20/20/20 21/21/21
s 1
f 22/22/22 23/23/23 24/24/24
f 25/25/25 22/22/22 24/24/24
f 22/22/22 25/25/25 26/26/4
f 25/25/25 24/24/24 27/27/26
g Skirt2
f 28/28/27 29/29/28 30/30/29
f 31/31/30 32/32/31 33/33/32
f 34/34/33 31/31/30 33/33/32
g Skirt3
f 34/34/33 35/35/34 31/31/30
g Skirt2
f 36/36/35 33/33/32 30/30/29
g Skirt3
f 36/36/35 34/34/33 33/33/32
f 30/30/29 37/37/36 36/36/35
s 2
g Hip
f 38/38/37 39/39/38 40/40/21
f 41/41/39 42/15/40 43/42/37
f 38/38/37 40/40/21 44/43/41
f 20/20/20 44/43/41 40/40/21
f 43/42/37 38/38/37 44/43/41
f 20/20/20 19/19/19 44/43/41
s 1
g Skirt2
f 45/44/42 46/45/43 47/9/44
f 48/46/42 49/47/45 46/45/43
f 49/47/45 50/48/46 46/45/43
f 51/49/47 49/47/45 48/46/42
g Skirt3
f 51/49/47 52/50/48 49/47/45
f 51/49/47 48/46/42 53/51/49
g Skirt2
f 47/9/44 53/51/49 48/46/42
g Skirt3
f 47/9/44 54/10/50 53/51/49
g Hip
f 55/52/51 56/53/52 57/54/53
f 58/55/54 59/56/55 60/57/56
f 61/58/57 58/55/54 60/57/56
f 62/59/58 61/58/57 60/57/56
f 60/57/56 63/60/59 62/59/58
f 60/57/56 64/61/60 63/60/59
f 60/57/56 59/56/55 64/61/60
s 2
f 59/56/61 66/62/62 65/63/63
f 59/56/61 67/64/64 66/62/62
f 67/64/64 68/65/65 66/62/62
f 68/65/65 69/66/66 66/62/62
f 69/66/66 68/65/65 70/67/67
f 69/66/66 70/67/67 71/68/68
f 66/62/62 69/66/66 71/68/68
f 65/63/63 66/62/62 72/69/69
f 72/69/69 66/62/62 71/68/68
f 65/63/63 72/69/69 73/70/70
f 72/69/69 71/68/68 73/70/70
f 71/68/68 74/71/71 73/70/70
f 74/71/71 71/68/68 76/72/72
f 75/73/73 74/71/71 76/72/72
f 71/68/68 70/67/67 76/72/72
f 75/73/73 76/72/72 77/74/74
f 77/74/74 78/75/75 75/73/73
f 77/74/74 79/76/76 78/75/75
f 77/74/74 80/77/77 79/76/76
f 81/78/78 77/74/74 76/72/72
f 77/74/74 81/78/78 80/77/77
f 82/79/79 81/78/78 76/72/72
f 70/67/67 82/79/79 76/72/72
f 83/80/80 81/78/78 82/79/79
f 83/80/80 82/79/79 70/67/67
f 84/81/81 83/80/80 70/67/67
f 84/81/81 70/67/67 68/65/65
f 86/82/82 85/83/83 78/75/75
f 79/76/76 86/82/82 78/75/75
s 4
f 87/84/84 79/76/85 88/77/86
s 1
f 89/77/77 90/85/87 87/84/88
f 90/85/87 89/77/77 81/78/89
f 81/78/89 91/80/90 90/85/87
f 90/85/87 91/80/90 92/81/91
f 93/86/92 90/85/87 92/81/91
f 93/86/92 94/87/93 90/85/87
f 94/87/93 93/86/92 95/88/94
f 96/89/95 94/87/93 95/88/94
f 97/90/96 96/89/95 95/88/94
f 98/91/97 97/90/96 95/88/94
f 61/58/57 97/90/96 98/91/97
f 58/55/54 61/58/57 98/91/97
f 59/56/55 58/55/54 98/91/97
f 93/86/92 92/81/91 99/65/98
f 99/65/98 98/91/97 95/88/94
f 95/88/94 93/86/92 99/65/98
f 59/56/55 98/91/97 100/64/99
f 98/91/97 99/65/98 100/64/99
f 94/87/93 101/92/100 90/85/87
f 90/85/87 101/92/100 87/84/88
g Skirt2
f 102/93/101 103/94/102 104/95/103
f 102/93/101 104/95/103 105/96/29
g Skirt3
f 103/94/102 106/97/104 104/95/103
f 106/97/104 107/98/105 104/95/103
s 2
g Skirt2
f 108/99/106 109/100/107 110/12/108
f 111/9/45 108/99/106 110/12/108
f 112/101/109 108/99/106 111/9/45
g Skirt3
f 112/101/109 113/102/110 108/99/106
g Skirt2
f 108/99/106 114/47/9 115/48/111
f 113/102/110 114/47/9 108/99/106
g Skirt3
f 113/102/110 116/50/112 114/47/9
s 1
f 117/103/113 119/104/114 118/105/115
f 119/104/114 117/103/113 120/106/116
f 122/107/117 121/108/118 123/109/119
f 122/107/117 124/110/120 121/108/118
f 121/108/118 124/110/120 125/111/121
f 128/112/122 127/113/123 126/114/124
f 129/111/125 127/113/123 128/112/122
f 131/115/126 130/116/127 132/109/128
f 133/117/129 130/116/127 131/115/126
f 130/116/127 133/117/129 134/111/119
f 136/118/130 135/119/118 137/120/131
f 138/121/132 135/119/118 136/118/130
f 135/119/118 138/121/132 139/122/133
g LegR
f 140/123/134 141/123/135 142/123/136
f 141/123/135 140/123/134 143/123/137
f 144/123/138 141/123/135 143/123/137
f 144/123/138 145/123/139 141/123/135
f 146/123/140 145/123/139 144/123/138
f 146/123/140 147/123/141 145/123/139
f 148/123/142 147/123/141 146/123/140
f 147/123/141 148/123/142 149/123/143
f 147/123/141 150/123/144 145/123/139
f 147/123/141 149/123/143 150/123/144
f 145/123/139 150/123/144 151/123/145
f 145/123/139 151/123/145 141/123/135
f 141/123/135 151/123/145 142/123/136
f 151/123/145 152/123/146 142/123/136
f 151/123/145 153/123/147 152/123/146
f 150/123/144 153/123/147 151/123/145
f 153/123/147 150/123/144 154/123/148
f 154/123/148 149/123/143 143/123/137
f 149/123/143 154/123/148 150/123/144
f 143/123/137 140/123/134 154/123/148
f 140/123/134 155/123/149 154/123/148
f 155/123/149 153/123/147 154/123/148
f 155/123/149 156/123/150 153/123/147
f 155/123/149 140/123/134 156/123/150
f 143/123/137 157/123/151 144/123/138
f 149/123/143 157/123/151 143/123/137
f 149/123/143 158/123/152 157/123/151
f 148/123/142 158/123/152 149/123/143
f 159/123/153 158/123/152 148/123/142
g FootR
f 159/123/153 160/123/154 158/123/152
f 158/123/152 160/123/154 161/123/155
g LegR
f 158/123/152 162/123/156 157/123/151
f 162/123/156 158/123/152 161/123/155
f 157/123/151 163/123/157 144/123/138
f 157/123/151 162/123/156 163/123/157
f 163/123/157 146/123/140 144/123/138
f 164/123/158 148/123/142 146/123/140
f 164/123/158 146/123/140 163/123/157
f 165/123/159 164/123/158 163/123/157
f 162/123/156 165/123/159 163/123/157
f 165/123/159 162/123/156 161/123/155
g FootR
f 166/123/160 165/123/159 161/123/155
g LegR
f 164/123/158 165/123/159 167/123/161
g FootR
f 165/123/159 166/123/160 167/123/161
g LegR
f 164/123/158 168/123/162 148/123/142
g FootR
f 168/123/162 164/123/158 167/123/161
f 148/123/142 168/123/162 159/123/153
f 159/123/153 168/123/162 169/123/163
f 168/123/162 170/123/164 169/123/163
f 171/123/165 170/123/164 168/123/162
f 171/123/165 168/123/162 167/123/161
g LegR
f 140/123/134 172/123/166 156/123/150
f 172/123/166 140/123/134 142/123/136
f 142/123/136 152/123/146 173/123/167
f 174/123/168 173/123/167 152/123/146
f 156/123/150 175/123/169 153/123/147
f 153/123/147 175/123/169 152/123/146
f 174/123/168 175/123/169 156/123/150
f 175/123/169 174/123/168 152/123/146
s 2
g Skirt3
f 111/9/45 176/10/170 112/101/109
s 1
g FootR
f 177/124/171 178/124/172 179/124/173
f 177/124/171 179/124/173 180/124/174
f 179/124/173 181/124/175 180/124/174
f 180/124/174 181/124/175 182/124/176
f 180/124/174 182/124/176 183/124/177
f 182/124/176 184/124/178 183/124/177
f 181/124/175 185/124/179 182/124/176
f 182/124/176 185/124/179 184/124/178
f 186/124/180 185/124/179 181/124/175
f 186/124/180 184/124/178 185/124/179
f 183/124/177 184/124/178 187/124/181
f 184/124/178 186/124/180 187/124/181
f 187/124/181 186/124/180 188/124/182
f 183/124/177 187/124/181 188/124/182
f 188/124/182 189/124/183 183/124/177
f 186/124/180 189/124/183 188/124/182
f 186/124/180 190/124/160 189/124/183
f 190/124/160 186/124/180 191/124/184
f 186/124/180 192/124/185 191/124/184
f 193/124/173 191/124/184 192/124/185
f 193/124/173 194/124/186 191/124/184
f 193/124/173 195/124/187 194/124/186
f 195/124/187 196/124/188 194/124/186
f 196/124/188 195/124/187 197/124/189
f 195/124/187 198/124/190 197/124/189
f 198/124/190 199/124/191 197/124/189
f 200/124/174 183/124/177 199/124/191
f 198/124/190 200/124/174 199/124/191
f 189/124/183 201/124/154 183/124/177
f 183/124/177 201/124/154 199/124/191
g Skirt2
f 202/125/192 102/93/101 105/96/29
g Skirt1
f 105/96/29 203/126/193 202/125/192
f 203/126/193 2/2/2 202/125/192
g Hip
f 2/2/2 203/126/193 3/3/3
s 2
g Skirt1
f 12/12/12 13/13/13 16/15/15
f 16/15/15 13/13/13 15/16/16
g Hip
f 16/15/15 14/14/14 21/21/21
s 1
g Skirt1
f 23/23/23 204/127/29 24/24/24
g Hip
f 24/24/24 205/128/194 27/27/26
g Skirt1
f 24/24/24 29/29/28 205/128/194
f 204/127/29 29/29/28 24/24/24
g Skirt2
f 29/29/28 204/127/29 30/30/29
g Skirt1
f 29/29/28 32/32/31 205/128/194
g Skirt2
f 32/32/31 29/29/28 33/33/32
s 2
g Skirt1
f 109/100/107 39/39/38 110/12/108
f 39/39/38 109/100/107 115/48/111
f 206/129/15 39/39/38 115/48/111
g Hip
f 39/39/38 206/129/15 40/40/21
g Skirt1
f 39/39/38 42/15/40 110/12/108
g Hip
f 39/39/38 38/38/37 42/15/40
f 42/15/40 38/38/37 43/42/37
s 1
g Skirt1
f 46/45/43 50/48/46 56/53/52
f 46/45/43 56/53/52 207/130/194
f 208/12/195 46/45/43 207/130/194
g Skirt2
f 46/45/43 208/12/195 47/9/44
g Skirt1
f 50/48/46 209/129/196 56/53/52
g Hip
f 56/53/52 209/129/196 57/54/53
f 207/130/194 56/53/52 210/131/197
f 56/53/52 55/52/51 210/131/197
f 205/128/194 211/132/198 27/27/26
s 2
g Skirt2
f 109/100/107 108/99/106 115/48/111
